<svg width="1062" height="419" viewBox="0 0 1062 419" fill="none" xmlns="http://www.w3.org/2000/svg">
<rect width="1062" height="419" fill="transparent"/>
<path d="M524.269 45.3006C516.635 46.2877 509.273 49.8131 503.684 55.1012C499.73 58.8381 498.844 60.8123 499.866 63.7031C500.207 64.6197 504.365 69.4142 509.069 74.3498C513.84 79.2853 517.589 83.4453 517.453 83.5158C517.248 83.6568 515.135 84.4324 512.681 85.349C500.548 89.7205 485.552 103.187 475.668 118.629C463.058 138.3 455.423 160.722 455.423 177.785C455.423 207.68 479.826 233.415 513.976 239.55C521.815 241.03 537.289 240.96 544.65 239.55C561.146 236.306 573.961 229.819 584.594 219.314C597.137 207.045 602.931 193.931 602.931 177.855C602.931 145.704 578.323 102.271 552.216 88.3808C549.422 86.9002 545.877 85.2785 544.378 84.7849C542.878 84.2914 541.447 83.7978 541.242 83.6568C540.969 83.5158 544.446 79.6379 548.945 75.1254C560.873 62.998 561.35 61.3763 555.216 55.3832C547.581 47.9093 535.107 43.8199 524.269 45.3006ZM537.561 59.0496C539.47 59.6136 541.583 60.5302 542.333 61.0943C543.628 62.0814 543.423 62.434 536.402 69.7668L529.041 77.3816L521.883 69.9783C517.93 65.8888 514.726 62.3634 514.726 62.1519C514.726 61.3058 521.815 58.4855 525.292 57.992C529.245 57.4279 532.722 57.7099 537.561 59.0496ZM537.152 95.7136C549.558 98.7455 562.918 110.238 573.62 127.09C584.458 144.011 591.683 166.503 590.866 180.323C589.57 202.11 571.439 220.512 545.127 226.647C537.016 228.55 522.361 228.691 514.385 226.929C491.619 221.782 475.327 208.597 469.465 190.406C465.853 179.265 467.693 163.683 474.714 146.761C487.801 115.385 509 94.8676 528.7 94.7265C530.949 94.7265 534.766 95.1496 537.152 95.7136Z" fill="#FFFFFF"/>
<path d="M524.784 116.535C523.421 117.663 522.876 119.003 522.603 121.4C522.262 124.573 522.126 124.714 519.672 125.137C515.31 125.913 509.243 129.297 506.244 132.681C500.518 139.168 500.586 146.854 506.448 153.622C510.265 158.064 515.855 160.814 527.238 163.916C540.53 167.583 545.165 171.038 541.825 174.845C538.281 178.864 526.489 180.063 519.808 177.031C515.991 175.268 514.219 173.365 514.219 170.897C514.219 168.711 511.765 165.891 509.516 165.327C505.017 164.34 501.336 168.711 502.29 173.929C503.585 181.332 510.334 187.748 519.399 190.286C522.126 191.062 522.262 191.203 522.603 194.376C523.557 203.26 534.668 203.26 534.668 194.376V191.203L537.94 190.427C548.71 187.607 555.117 180.979 555.117 172.589C555.049 162.436 547.892 156.372 530.238 151.648C520.695 149.11 516.332 146.995 514.901 144.245C513.946 142.412 513.946 142.271 515.787 140.649C521.376 135.572 535.691 135.572 540.939 140.649C541.962 141.636 542.984 143.54 543.257 144.879C544.143 149.885 550.073 151.93 553.413 148.405C556.958 144.809 554.504 135.361 548.846 130.848C546.052 128.663 539.781 125.631 536.918 125.067C534.805 124.644 534.668 124.432 534.668 121.612C534.668 119.073 534.327 118.227 532.555 116.747C529.965 114.49 527.17 114.42 524.784 116.535Z" fill="#FFFFFF"/>
<path d="M616.972 239.409C612.201 240.819 609.474 243.145 597.75 255.837C588.684 265.708 586.23 268.035 582.958 269.586L579.073 271.419L576.483 269.092C570.212 263.452 564.963 262.253 549.763 262.888L538.72 263.381L533.335 260.49C523.792 255.414 522.361 255.202 501.434 255.625C481.121 256.048 479.417 256.33 470.76 260.913C466.739 262.958 464.08 265.426 453.924 276.073L441.859 288.694L439.814 287.213C438.723 286.367 436.747 285.732 435.451 285.732C433.338 285.732 432.248 286.649 424.273 295.18C419.024 300.75 415.275 305.333 415.07 306.391C414.661 308.718 416.093 312.173 417.865 313.16C418.615 313.583 420.251 313.935 421.478 313.935C423.455 313.935 424.477 313.089 429.589 307.59C432.793 304.135 435.656 301.244 435.929 301.244C436.133 301.244 448.334 313.019 462.922 327.473L489.506 353.702L483.78 359.765C480.508 363.15 477.781 366.675 477.509 367.803C476.759 370.835 477.918 373.373 480.781 374.784C484.461 376.617 486.097 375.559 495.572 365.265C503.479 356.663 503.82 356.169 503.82 353.279C503.82 350.529 503.479 349.965 499.389 346.016L494.89 341.715L496.458 340.305C498.026 338.966 498.64 338.966 534.153 339.53C553.989 339.812 570.893 339.953 571.643 339.741C572.461 339.53 587.457 323.736 605.112 304.699C652.009 253.792 648.328 258.023 648.328 254.779C648.328 252.382 647.919 251.606 644.92 248.857C636.467 241.03 624.879 237.082 616.972 239.409ZM629.855 253.51C631.491 254.356 632.786 255.343 632.718 255.766C632.718 256.119 617.995 272.406 600.068 291.866L567.553 327.261L529.927 326.838L492.3 326.415L489.165 329.588L486.097 332.761L468.579 315.486C458.9 305.968 450.925 298.001 450.857 297.789C450.72 297.577 455.628 292.148 461.763 285.732C477.918 268.599 478.94 268.176 504.57 268.035L520.248 267.964L525.155 270.502C527.882 271.913 531.154 273.675 532.449 274.451C534.698 275.791 535.789 275.861 549.49 275.72C563.804 275.509 564.213 275.509 566.735 277.13C571.302 280.092 571.848 283.335 568.712 288.411C566.804 291.443 565.577 291.655 544.718 292.43L524.61 293.135L524.883 299.129C524.951 302.443 525.224 305.263 525.36 305.404C525.428 305.545 534.835 305.333 546.218 304.981C570.144 304.205 571.575 303.853 577.096 297.577C579.959 294.264 582.89 287.918 582.89 284.957C582.89 283.899 584.185 282.912 588.548 280.867C593.865 278.258 594.683 277.553 605.725 265.637C612.065 258.728 618.199 252.664 619.358 252.17C621.948 250.901 625.902 251.465 629.855 253.51Z" fill="#FFFFFF"/>
<circle cx="532.5" cy="209.5" r="207" stroke="#FFFFFF" stroke-width="5"/>
<line x1="739" y1="208.5" x2="1062" y2="208.5" stroke="black"/>
<line x1="739" y1="206.5" x2="1062" y2="206.5" stroke="#FFFFFF" stroke-width="5"/>
<line x1="323" y1="211.5" y2="211.5" stroke="#FFFFFF" stroke-width="5"/>
</svg>
